<svg width="0" height="0" class="hidden">
  <symbol viewBox="0 0 64 64" xmlns="http://www.w3.org/2000/svg" id="storage-box-1">
    <title>Storage Box</title>
    <desc>A line styled icon from Orion Icon Library.</desc>
    <path d="M62 49.999L31.999 60 2 49.999v-36L31.999 4 62 13.999v36z"
    stroke-width="2" stroke-miterlimit="10" stroke="#202020" fill="none" data-name="layer2"
    stroke-linejoin="round" stroke-linecap="round"></path>
    <path d="M62 13.999L31.999 24 2 13.999M31.999 24v36" stroke-width="2"
    stroke-miterlimit="10" stroke="#202020" fill="none" data-name="layer1"
    stroke-linejoin="round" stroke-linecap="round"></path>
  </symbol>
  <symbol xmlns="http://www.w3.org/2000/svg" viewBox="0 0 64 64" id="team-1">
    <title>Team</title>
    <desc>A line styled icon from Orion Icon Library.</desc>
    <path data-name="layer2"
    d="M30 38a36.7 36.7 0 0 0 6-1.4c3.1-1.1 3-2.7 3-3.6v-2m-.8-21A8.9 8.9 0 0 1 44 8c4 0 9 2.4 9 8.6v5.8a11.4 11.4 0 0 1-4 8.6v1.9c0 1.2-.1 3.3 5.9 4.5S62 44 62 44v4H52"
    fill="none" stroke="#202020" stroke-miterlimit="10" stroke-width="2" stroke-linejoin="round"
    stroke-linecap="round"></path>
    <path data-name="layer1" d="M37.4 43.9c-7.5-1-7.4-3.7-7.4-5.1v-2.3c2.7-2.4 4-6.4 4-10.9v-7C34 11 28.9 8 24 8s-10 3-10 10.6v7c0 4.5 1.3 8.6 4 11V39c0 1.5.1 3.9-7.4 4.9S2 52 2 52v4h44v-4s0-6.8-8.6-8.1z"
    fill="none" stroke="#202020" stroke-miterlimit="10" stroke-width="2" stroke-linejoin="round"
    stroke-linecap="round"></path>
  </symbol>
  <symbol xmlns="http://www.w3.org/2000/svg" viewBox="0 0 64 64" id="social-1">
    <title>Social</title>
    <desc>A line styled icon from Orion Icon Library.</desc>
    <circle data-name="layer2"
    cx="32" cy="39" r="7" fill="none" stroke="#202020" stroke-miterlimit="10"
    stroke-width="2" stroke-linejoin="round" stroke-linecap="round"></circle>
    <path data-name="layer2" d="M32 46a12.1 12.1 0 0 0-12 12v2h24v-2a12.1 12.1 0 0 0-12-12z"
    fill="none" stroke="#202020" stroke-miterlimit="10" stroke-width="2" stroke-linejoin="round"
    stroke-linecap="round"></path>
    <circle data-name="layer2" cx="52" cy="10" r="6" fill="none" stroke="#202020"
    stroke-miterlimit="10" stroke-width="2" stroke-linejoin="round" stroke-linecap="round"></circle>
    <path data-name="layer2" d="M62 28c0-7.5-4.5-12-10-12s-10 4.5-10 12z"
    fill="none" stroke="#202020" stroke-miterlimit="10" stroke-width="2" stroke-linejoin="round"
    stroke-linecap="round"></path>
    <circle data-name="layer2" cx="12" cy="10" r="6" fill="none" stroke="#202020"
    stroke-miterlimit="10" stroke-width="2" stroke-linejoin="round" stroke-linecap="round"></circle>
    <path data-name="layer2" d="M22 28c0-7.5-4.5-12-10-12S2 20.5 2 28z"
    fill="none" stroke="#202020" stroke-miterlimit="10" stroke-width="2" stroke-linejoin="round"
    stroke-linecap="round"></path>
    <path data-name="layer1" fill="none" stroke="#202020" stroke-miterlimit="10"
    stroke-width="2" d="M12 34l8 8m32-8l-8 8M24 14h16" stroke-linejoin="round"
    stroke-linecap="round"></path>
  </symbol>
  <symbol xmlns="http://www.w3.org/2000/svg" viewBox="0 0 64 64" id="add-user-1">
    <title>Add User</title>
    <desc>A line styled icon from Orion Icon Library.</desc>
    <path data-name="layer2"
    d="M35.9 41c-3.3-1-3.9-2.9-3.9-4v-2a14.1 14.1 0 0 0 4-7c2.5 0 4-3 4-6 0-.8 0-4-2-4C43 3.5 28.4-2 18 5c-4.4 0-5.6 6.6-4 13-2 0-2 3.2-2 4 0 3 1.5 6 4 6a14.2 14.2 0 0 0 4 7v2c0 1.6-.5 3.6-8.6 5.2S2 51 2 51h32.3"
    fill="none" stroke="#202020" stroke-miterlimit="10" stroke-width="2" stroke-linejoin="round"
    stroke-linecap="round"></path>
    <circle data-name="layer1" cx="48" cy="48" r="14" fill="none" stroke="#202020"
    stroke-miterlimit="10" stroke-width="2" stroke-linejoin="round" stroke-linecap="round"></circle>
    <path data-name="layer1" fill="none" stroke="#202020" stroke-miterlimit="10"
    stroke-width="2" d="M42 48h12m-6 6V42" stroke-linejoin="round" stroke-linecap="round"></path>
  </symbol>
  <symbol viewBox="0 0 64 64" xmlns="http://www.w3.org/2000/svg" id="shopping-bag-1">
    <title>Shopping Bag</title>
    <desc>A line styled icon from Orion Icon Library.</desc>
    <path stroke-width="2"
    stroke-miterlimit="10" stroke="#202020" fill="none" d="M16 14V8a6 6 0 0 1 6-6h6a6 6 0 0 1 6 6v6m4-12h2a6 6 0 0 1 6 6v6"
    data-name="layer2" stroke-linejoin="round" stroke-linecap="round"></path>
    <path d="M1.995 14h60.01v48H1.995zm44.01 48V14" stroke-width="2"
    stroke-miterlimit="10" stroke="#202020" fill="none" data-name="layer1"
    stroke-linejoin="round" stroke-linecap="round"></path>
    <path d="M54.005 14v40l8 8" stroke-width="2" stroke-miterlimit="10"
    stroke="#202020" fill="none" data-name="layer1" stroke-linejoin="round"
    stroke-linecap="round"></path>
  </symbol>
  <symbol xmlns="http://www.w3.org/2000/svg" viewBox="0 0 64 64" id="setting-1">
    <title>Setting</title>
    <desc>A line styled icon from Orion Icon Library.</desc>
    <circle data-name="layer2"
    cx="32" cy="32" r="10" fill="none" stroke="#202020" stroke-linecap="round"
    stroke-miterlimit="10" stroke-width="2" stroke-linejoin="round"></circle>
    <path data-name="layer1" d="M61 27h-6.551a22.857 22.857 0 0 0-3.041-7.336l4.634-4.634a1 1 0 0 0 0-1.414l-5.657-5.658a1 1 0 0 0-1.414 0l-4.634 4.634A22.857 22.857 0 0 0 37 9.552V3a1 1 0 0 0-1-1h-8a1 1 0 0 0-1 1v6.552a22.857 22.857 0 0 0-7.336 3.041l-4.635-4.635a1 1 0 0 0-1.414 0l-5.657 5.657a1 1 0 0 0 0 1.414l4.634 4.634A22.857 22.857 0 0 0 9.552 27H3a1 1 0 0 0-1 1v8a1 1 0 0 0 1 1h6.552a22.856 22.856 0 0 0 3.041 7.336l-4.635 4.635a1 1 0 0 0 0 1.414l5.657 5.657a1 1 0 0 0 1.414 0l4.634-4.634A22.86 22.86 0 0 0 27 54.449V61a1 1 0 0 0 1 1h8a1 1 0 0 0 1-1v-6.551a22.86 22.86 0 0 0 7.336-3.041l4.634 4.634a1 1 0 0 0 1.414 0l5.657-5.657a1 1 0 0 0 0-1.414l-4.634-4.634A22.856 22.856 0 0 0 54.449 37H61a1 1 0 0 0 1-1v-8a1 1 0 0 0-1-1z"
    fill="none" stroke="#202020" stroke-linecap="round" stroke-miterlimit="10"
    stroke-width="2" stroke-linejoin="round"></path>
  </symbol>
</svg>