<svg width="0" height="0" class="hidden">
  <symbol xmlns="http://www.w3.org/2000/svg" viewBox="0 0 64 64" id="cancel-1">
    <title>Cancel</title>
    <desc>A line styled icon from Orion Icon Library.</desc>
    <path data-name="layer1"
    d="M32 2a30 30 0 1 0 30 30A30 30 0 0 0 32 2zm0 7a22.9 22.9 0 0 1 13.6 4.5L13.5 45.6A23 23 0 0 1 32 9zm0 46a22.9 22.9 0 0 1-13.6-4.5l32.1-32.1A23 23 0 0 1 32 55z"
    fill="none" stroke="#202020" stroke-miterlimit="10" stroke-width="2" stroke-linejoin="round"
    stroke-linecap="round" style="stroke:var(--layer4, #202020)"></path>
  </symbol>
  <symbol xmlns="http://www.w3.org/2000/svg" viewBox="0 0 64 64" id="add-circle-1">
    <title>Add Circle</title>
    <desc>A line styled icon from Orion Icon Library.</desc>
    <circle data-name="layer2"
    cx="32" cy="32" r="30" fill="none" stroke="#202020" stroke-miterlimit="10"
    stroke-width="2" stroke-linejoin="round" stroke-linecap="round" style="stroke:var(--layer4, #202020)"></circle>
    <path data-name="layer1" fill="none" stroke="#202020" stroke-miterlimit="10"
    stroke-width="2" d="M32 16v32m16-16H16" stroke-linejoin="round" stroke-linecap="round" style="stroke:var(--layer4, #202020)"></path>
  </symbol>
  <symbol viewBox="0 0 64 64" xmlns="http://www.w3.org/2000/svg" id="edit-1">
    <title>Edit</title>
    <desc>A line styled icon from Orion Icon Library.</desc>
    <path d="M54.894 21.697l6.276-6.263-8.026-8.026-6.276 6.264"
    stroke-width="2" stroke-miterlimit="10" stroke="#202020" fill="none" data-name="layer1"
    stroke-linejoin="round" stroke-linecap="round" style="stroke:var(--layer4, #202020)"></path>
    <path d="M33.037 40.592h16.955l11.438 16H2.57l11.422-16h11.69"
    stroke-width="2" stroke-miterlimit="10" stroke="#202020" fill="none" data-name="layer2"
    stroke-linejoin="round" stroke-linecap="round" style="stroke:var(--layer4, #202020)"></path>
    <path d="M23.885 44.645l6.383-14.407 16.6-16.566 8.026 8.025-16.601 16.566-14.408 6.382zm6.383-14.407l8.025 8.025"
    stroke-width="2" stroke-miterlimit="10" stroke="#202020" fill="none" data-name="layer1"
    stroke-linejoin="round" stroke-linecap="round" style="stroke:var(--layer4, #202020)"></path>
  </symbol>
  <symbol xmlns="http://www.w3.org/2000/svg" viewBox="0 0 64 64" id="upload-folder-content-1">
    <title>Upload Folder Content</title>
    <desc>A line styled icon from Orion Icon Library.</desc>
    <path data-name="layer2"
    d="M54 27.1V15H22V9H2v40.3A1.7 1.7 0 0 0 3.7 51h29.8" fill="none" stroke="#202020"
    stroke-miterlimit="10" stroke-width="2" stroke-linejoin="round" stroke-linecap="round" style="stroke:var(--layer4, #202020)"></path>
    <circle data-name="layer1" cx="46" cy="41" r="16" fill="none" stroke="#202020"
    stroke-miterlimit="10" stroke-width="2" stroke-linejoin="round" stroke-linecap="round" style="stroke:var(--layer4, #202020)"></circle>
    <path data-name="layer1" fill="none" stroke="#202020" stroke-miterlimit="10"
    stroke-width="2" d="M46 49V33m6 6l-6-6-6 6" stroke-linejoin="round" stroke-linecap="round" style="stroke:var(--layer4, #202020)"></path>
  </symbol>
  <symbol xmlns="http://www.w3.org/2000/svg" viewBox="0 0 64 64" id="cancel-2">
    <title>Cancel</title>
    <desc>A line styled icon from Orion Icon Library.</desc>
    <path data-name="layer1"
    d="M53.122 48.88L36.243 32l16.878-16.878a3 3 0 0 0-4.242-4.242L32 27.758l-16.878-16.88a3 3 0 0 0-4.243 4.243l16.878 16.88-16.88 16.88a3 3 0 0 0 4.243 4.241L32 36.243l16.878 16.88a3 3 0 0 0 4.244-4.243z"
    fill="none" stroke="#202020" stroke-miterlimit="10" stroke-width="2" stroke-linejoin="round"
    stroke-linecap="round" style="stroke:var(--layer4, #202020)"></path>
  </symbol>
  <symbol xmlns="http://www.w3.org/2000/svg" viewBox="0 0 64 64" id="coins-1">
    <title>Coins</title>
    <desc>A line styled icon from Orion Icon Library.</desc>
    <ellipse data-name="layer2"
    cx="44" cy="7.1" rx="18" ry="5.1" fill="none" stroke="#202020" stroke-miterlimit="10"
    stroke-width="2" stroke-linejoin="round" stroke-linecap="round" style="stroke:var(--layer4, #202020)"></ellipse>
    <path data-name="layer2" d="M26 14.9c0 2.8 8.1 5.1 18 5.1s18-2.3 18-5.1m-36 8c0 2.8 8.1 5.1 18 5.1s18-2.3 18-5.1m-36 8c0 2.8 8.1 5.1 18 5.1s18-2.3 18-5.1M38 43.7c1.9.2 3.9.3 6 .3 9.9 0 18-2.3 18-5.1m-36-2.8V7.5"
    fill="none" stroke="#202020" stroke-miterlimit="10" stroke-width="2" stroke-linejoin="round"
    stroke-linecap="round" style="stroke:var(--layer4, #202020)"></path>
    <path data-name="layer2" d="M62 7.1v39.8c0 2.8-8.1 5.1-18 5.1-2.1 0-4.1-.1-6-.3"
    fill="none" stroke="#202020" stroke-miterlimit="10" stroke-width="2" stroke-linejoin="round"
    stroke-linecap="round" style="stroke:var(--layer4, #202020)"></path>
    <ellipse data-name="layer1" cx="20" cy="40.9" rx="18" ry="5.1"
    fill="none" stroke="#202020" stroke-miterlimit="10" stroke-width="2" stroke-linejoin="round"
    stroke-linecap="round" style="stroke:var(--layer4, #202020)"></ellipse>
    <path data-name="layer1" d="M2 48.9c0 2.8 8 5.1 18 5.1s18-2.3 18-5.1"
    fill="none" stroke="#202020" stroke-miterlimit="10" stroke-width="2" stroke-linejoin="round"
    stroke-linecap="round" style="stroke:var(--layer4, #202020)"></path>
    <path data-name="layer1" d="M38 40.9v16c0 2.8-8.1 5.1-18 5.1S2 59.7 2 56.9V41.3"
    fill="none" stroke="#202020" stroke-miterlimit="10" stroke-width="2" stroke-linejoin="round"
    stroke-linecap="round" style="stroke:var(--layer4, #202020)"></path>
  </symbol>
</svg>