<svg width="0" height="0" class="hidden">
  <symbol xmlns="http://www.w3.org/2000/svg" viewBox="0 0 64 64" id="bin-1">
    <title>Bin</title>
    <desc>A line styled icon from Orion Icon Library.</desc>
    <path data-name="layer2"
    fill="none" stroke="#202020" stroke-miterlimit="10" stroke-width="2" d="M6 10h52m-36 0V5.9A3.9 3.9 0 0 1 25.9 2h12.2A3.9 3.9 0 0 1 42 5.9V10m10.5 0l-2.9 47.1a5 5 0 0 1-4.9 4.9H19.3a5 5 0 0 1-4.9-4.9L11.5 10"
    stroke-linejoin="round" stroke-linecap="butt" style="stroke:var(--layer4, #202020)"></path>
    <path data-name="layer1" fill="none" stroke="#202020" stroke-miterlimit="10"
    stroke-width="2" d="M32 18v36M22 18l2 36m18-36l-2 36" stroke-linejoin="round"
    stroke-linecap="butt" style="stroke:var(--layer4, #202020)" ></path>
  </symbol>
  <symbol xmlns="http://www.w3.org/2000/svg" viewBox="0 0 64 64" id="hidden-1">
    <title>Hidden</title>
    <desc>A line styled icon from Orion Icon Library.</desc>
    <path data-name="layer2"
    d="M25.9 49.3a26.4 26.4 0 0 0 6.1.7c17.2 0 29.5-17.5 29.5-17.5a51.8 51.8 0 0 0-9.5-9.7m-6.5-4.3A29.1 29.1 0 0 0 32 15C14.8 15 2.5 32.5 2.5 32.5a50.9 50.9 0 0 0 15.4 13.6M32 44a12 12 0 0 0 12-12m-3.5-8.5a12 12 0 0 0-17 17"
    fill="none" stroke="#202020" stroke-miterlimit="10" stroke-width="2" stroke-linejoin="round"
    stroke-linecap="butt" style="stroke:var(--layer4, #202020)" ></path>
    <path data-name="layer1" fill="none" stroke="#202020" stroke-miterlimit="10"
    stroke-width="2" d="M62 2L2 62" stroke-linejoin="round" stroke-linecap="butt" style="stroke:var(--layer4, #202020)" ></path>
  </symbol>
  <symbol xmlns="http://www.w3.org/2000/svg" viewBox="0 0 64 64" id="eye-1">
    <title>Eye</title>
    <desc>A line styled icon from Orion Icon Library.</desc>
    <path data-name="layer2"
    d="M32 14.5C14.8 14.5 2.5 32 2.5 32S14.8 49.5 32 49.5 61.5 32 61.5 32 49.2 14.5 32 14.5z"
    fill="none" stroke="#202020" stroke-miterlimit="10" stroke-width="2" stroke-linejoin="round"
    stroke-linecap="butt" style="stroke:var(--layer4, #202020)" ></path>
    <circle data-name="layer1" cx="32" cy="31.5" r="10" fill="none"
    stroke="#202020" stroke-miterlimit="10" stroke-width="2" stroke-linejoin="round"
    stroke-linecap="butt" style="stroke:var(--layer4, #202020)" ></circle>
    <path data-name="layer1" d="M28.5 29.5a4 4 0 0 0 3.5 6" fill="none"
    stroke="#202020" stroke-miterlimit="10" stroke-width="2" stroke-linejoin="round"
    stroke-linecap="butt" style="stroke:var(--layer4, #202020)" ></path>
  </symbol>
  <symbol xmlns="http://www.w3.org/2000/svg" viewBox="0 0 64 64" id="chats-1">
    <title>Chats</title>
    <desc>A line styled icon from Orion Icon Library.</desc>
    <path data-name="layer2"
    d="M48.5 36.5c.7.4 1.7 1.1 1.5 2.5a7.2 7.2 0 0 1-6.8 5c-4.5 0-10-3.5-14.8-8.4S20 25.3 20 20.8a7.2 7.2 0 0 1 5-6.8c1.4-.2 2 .9 2.5 1.5l3.4 5.2a2.4 2.4 0 0 1-.6 3.3c-1.5 1.2-2.9 1.6 2.6 7.1s5.9 4.1 7.1 2.6a2.4 2.4 0 0 1 3.3-.6z"
    fill="none" stroke="#202020" stroke-miterlimit="10" stroke-width="2" stroke-linejoin="round"
    stroke-linecap="butt" style="stroke:var(--layer4, #202020)" ></path>
    <path data-name="layer1" d="M34 2A28 28 0 0 0 9.3 43.2L3.2 60.8l17.5-6.1A28 28 0 1 0 34 2z"
    fill="none" stroke="#202020" stroke-miterlimit="10" stroke-width="2" stroke-linejoin="round"
    stroke-linecap="butt" style="stroke:var(--layer4, #202020)" ></path>
  </symbol>
  <symbol xmlns="http://www.w3.org/2000/svg" viewBox="0 0 64 64" id="tag-1">
    <title>Tag</title>
    <desc>A line styled icon from Orion Icon Library.</desc>
    <path data-name="layer2"
    fill="none" stroke="#202020" stroke-miterlimit="10" stroke-width="2" d="M25.6 61L3 38.4 38.4 3l21.2 1.4L61 25.6 25.6 61z"
    stroke-linejoin="round" stroke-linecap="butt" style="stroke:var(--layer4, #202020)" ></path>
    <circle data-name="layer1" cx="48" cy="16" r="4" fill="none" stroke="#202020"
    stroke-miterlimit="10" stroke-width="2" stroke-linejoin="round" stroke-linecap="butt" style="stroke:var(--layer4, #202020)" ></circle>
  </symbol>
  <symbol viewBox="0 0 64 64" xmlns="http://www.w3.org/2000/svg" id="search-server-1">
    <title>Search Server</title>
    <desc>A line styled icon from Orion Icon Library.</desc>
    <circle stroke-width="2"
    stroke-linejoin="round" stroke-linecap="butt" stroke="#202020" fill="none"
    r="10" cy="46" cx="46" data-name="layer2" style="stroke:var(--layer4, #202020)" ></circle>
    <path d="M53.2 53.2L62 62" stroke-width="2" stroke-linejoin="round"
    stroke-linecap="butt" stroke="#202020" fill="none" data-name="layer2" style="stroke:var(--layer4, #202020)" ></path>
    <path stroke-width="2" stroke-linejoin="round" stroke-linecap="butt"
    stroke="#202020" fill="none" d="M36.8 50H4a2 2 0 0 1-2-2V4a2 2 0 0 1 2-2h48a2 2 0 0 1 2 2v36m-8-14H30m6.8 16H30m16-32H30"
    data-name="layer1" style="stroke:var(--layer4, #202020)" ></path>
    <circle stroke-width="2" stroke-linejoin="round" stroke-linecap="butt"
    stroke="#202020" fill="none" r="1" cy="10" cx="11" data-name="layer1" style="stroke:var(--layer4, #202020)" ></circle>
    <circle stroke-width="2" stroke-linejoin="round" stroke-linecap="butt"
    stroke="#202020" fill="none" r="1" cy="26" cx="11" data-name="layer1" style="stroke:var(--layer4, #202020)" ></circle>
    <circle stroke-width="2" stroke-linejoin="round" stroke-linecap="butt"
    stroke="#202020" fill="none" r="1" cy="42" cx="11" data-name="layer1" style="stroke:var(--layer4, #202020)" ></circle>
    <path d="M54 18H2m52 16H2" stroke-width="2" stroke-linejoin="round"
    stroke-linecap="butt" stroke="#202020" fill="none" data-name="layer1" style="stroke:var(--layer4, #202020)" ></path>
  </symbol>
</svg>